nColumns=19
nRows=65
DataType=double
version=3
OpenSimVersion=4.1
endheader
time	ground_force_calcn_r_vx	ground_force_calcn_r_vy	ground_force_calcn_r_vz	ground_force_calcn_r_px	ground_force_calcn_r_py	ground_force_calcn_r_pz	ground_force_calcn_r_mx	ground_force_calcn_r_my	ground_force_calcn_r_mz	ground_force_calcn_l_vx	ground_force_calcn_l_vy	ground_force_calcn_l_vz	ground_force_calcn_l_px	ground_force_calcn_l_py	ground_force_calcn_l_pz	ground_force_calcn_l_mx	ground_force_calcn_l_my	ground_force_calcn_l_mz
0	1.00282	387.794	-40.8734	-0.210945	0	-0.448506	-0.00385283	-1.4899	0.157035	-2.89935	363.414	40.8111	-0.197467	0	-0.83133	-0.019214	2.40834	0.270455
0.01	0.84457	387.605	-40.7746	-0.21065	0	-0.448433	-0.00319392	-1.46581	0.154198	-2.99974	363.757	40.8971	-0.196613	0	-0.831459	-0.019785	2.39918	0.269739
0.02	0.663409	387.356	-40.6599	-0.2103	0	-0.448351	-0.00246572	-1.4397	0.151123	-3.13248	364.177	41.0119	-0.195566	0	-0.83162	-0.0205385	2.38777	0.2689
0.03	0.460351	387.043	-40.5294	-0.209898	0	-0.448258	-0.00167901	-1.41163	0.14782	-3.307	364.673	41.1578	-0.19432	0	-0.831815	-0.021524	2.37352	0.26788
0.04	0.237009	386.667	-40.3837	-0.209445	0	-0.448158	-0.000846842	-1.38157	0.144292	-3.5359	365.236	41.3354	-0.19288	0	-0.832042	-0.0228035	2.35545	0.266578
0.05	-0.00499685	386.23	-40.2239	-0.208945	0	-0.448049	1.74594e-05	-1.34952	0.140545	-3.83357	365.848	41.5447	-0.191257	0	-0.832298	-0.0244399	2.33236	0.264857
0.06	-0.264795	385.74	-40.0527	-0.208401	0	-0.447934	0.000903056	-1.31553	0.136596	-4.21405	366.485	41.7836	-0.189476	0	-0.832578	-0.0264824	2.3031	0.262581
0.07	-0.542795	385.208	-39.8743	-0.207818	0	-0.447813	0.00180325	-1.27972	0.132469	-4.68848	367.12	42.0479	-0.187566	0	-0.832876	-0.0289508	2.26692	0.259641
0.08	-0.840969	384.653	-39.6952	-0.207199	0	-0.447686	0.00271628	-1.24241	0.128213	-5.26297	367.724	42.329	-0.185564	0	-0.833181	-0.0318273	2.22378	0.25598
0.09	-1.16338	384.095	-39.5231	-0.206544	0	-0.447552	0.00364696	-1.20406	0.123897	-5.93691	368.27	42.6155	-0.18351	0	-0.833485	-0.0350506	2.17421	0.251595
0.1	-1.51689	383.555	-39.3668	-0.205853	0	-0.447412	0.00460857	-1.1653	0.119603	-6.70265	368.731	42.8951	-0.181445	0	-0.833778	-0.0385211	2.11915	0.246524
0.11	-1.91131	383.051	-39.2354	-0.205125	0	-0.447265	0.00562304	-1.12693	0.11543	-7.54703	369.086	43.1563	-0.179404	0	-0.834052	-0.0421191	2.05983	0.240851
0.12	-2.35855	382.597	-39.1376	-0.204358	0	-0.447109	0.00671838	-1.08983	0.111484	-8.45399	369.317	43.3897	-0.177423	0	-0.834299	-0.0457295	1.99772	0.234704
0.13	-2.87018	382.203	-39.0808	-0.203552	0	-0.446943	0.00792213	-1.05494	0.107869	-9.40707	369.413	43.5875	-0.175527	0	-0.834515	-0.0492596	1.93441	0.228244
0.14	-3.45444	381.874	-39.0701	-0.202706	0	-0.446767	0.00925535	-1.02314	0.104679	-10.3916	369.364	43.7446	-0.173735	0	-0.834696	-0.0526498	1.87142	0.221636
0.15	-4.1149	381.613	-39.1072	-0.201822	0	-0.446579	0.0107327	-0.995344	0.102002	-11.396	369.166	43.8585	-0.172059	0	-0.834843	-0.0558781	1.81013	0.215052
0.16	-4.85068	381.42	-39.1905	-0.200905	0	-0.446379	0.0123662	-0.972378	0.099911	-12.412	368.811	43.9289	-0.170502	0	-0.834958	-0.0589579	1.75188	0.208666
0.17	-5.65717	381.292	-39.3161	-0.199957	0	-0.446168	0.0141674	-0.954877	0.0984602	-13.4334	368.288	43.9565	-0.169062	0	-0.835042	-0.0619301	1.69787	0.202647
0.18	-6.52758	381.223	-39.4798	-0.198986	0	-0.445947	0.0161495	-0.943159	0.0976745	-14.4554	367.578	43.9412	-0.167735	0	-0.8351	-0.0648537	1.64913	0.197141
0.19	-7.45425	381.2	-39.6778	-0.197996	0	-0.445714	0.018328	-0.937266	0.097557	-15.4735	366.652	43.882	-0.166515	0	-0.835134	-0.0677921	1.60637	0.192255
0.2	-8.42873	381.2	-39.9065	-0.196991	0	-0.44547	0.0207191	-0.937048	0.0980961	-16.4818	365.477	43.7764	-0.165395	0	-0.835148	-0.0708097	1.57017	0.188073
0.21	-9.44173	381.195	-40.1616	-0.195977	0	-0.445214	0.0233379	-0.942229	0.0992706	-17.4736	364.017	43.6206	-0.164368	0	-0.835144	-0.0739681	1.54093	0.184652
0.22	-10.4833	381.143	-40.4383	-0.194963	0	-0.444948	0.0261955	-0.95239	0.101046	-18.4407	362.235	43.4102	-0.163432	0	-0.835123	-0.0773222	1.51886	0.18202
0.23	-11.5429	381	-40.7305	-0.193959	0	-0.444673	0.0292985	-0.967065	0.103383	-19.3741	360.101	43.1397	-0.162586	0	-0.835087	-0.0809192	1.50402	0.18018
0.24	-12.6086	380.716	-41.0316	-0.192978	0	-0.444391	0.0326472	-0.985783	0.106242	-20.2644	357.589	42.8038	-0.161833	0	-0.835032	-0.0847975	1.49635	0.179114
0.25	-13.6663	380.245	-41.3338	-0.192039	0	-0.444108	0.036231	-1.00807	0.109581	-21.1005	354.684	42.3978	-0.161183	0	-0.834961	-0.088978	1.49565	0.178786
0.26	-14.6987	379.546	-41.6294	-0.191164	0	-0.44383	0.0400283	-1.0336	0.113368	-21.869	351.386	41.9185	-0.160652	0	-0.83487	-0.0934547	1.50161	0.179134
0.27	-15.6844	378.594	-41.9103	-0.190384	0	-0.443566	0.0440075	-1.06227	0.117593	-22.5538	347.708	41.365	-0.160268	0	-0.834754	-0.0981852	1.5137	0.180078
0.28	-16.5982	377.376	-42.1683	-0.189733	0	-0.443323	0.0481257	-1.09418	0.122265	-23.1361	343.679	40.7402	-0.160059	0	-0.83461	-0.103069	1.53105	0.181493
0.29	-17.4115	375.888	-42.395	-0.189249	0	-0.443115	0.052326	-1.12964	0.127408	-23.5935	339.34	40.0504	-0.160069	0	-0.834435	-0.107939	1.55245	0.183228
0.3	-18.0935	374.128	-42.5822	-0.188975	0	-0.442951	0.056536	-1.16903	0.133055	-23.8988	334.738	39.3053	-0.160342	0	-0.834223	-0.112568	1.57668	0.185135
0.31	-18.6136	372.091	-42.7213	-0.188952	0	-0.442842	0.0606702	-1.21282	0.139248	-24.0185	329.917	38.5168	-0.160932	0	-0.83397	-0.116663	1.60247	0.187084
0.32	-18.9459	369.757	-42.8039	-0.189215	0	-0.4428	0.0646356	-1.26146	0.146029	-23.9143	324.914	37.6983	-0.161895	0	-0.833674	-0.119868	1.62859	0.188958
0.33	-19.0719	367.092	-42.8215	-0.189791	0	-0.44283	0.0683437	-1.31546	0.15345	-23.5467	319.754	36.8638	-0.163285	0	-0.83333	-0.121806	1.65407	0.190695
0.34	-18.9827	364.047	-42.7658	-0.190705	0	-0.442939	0.0717157	-1.37535	0.161567	-22.8801	314.455	36.0278	-0.165151	0	-0.832935	-0.122123	1.67841	0.1923
0.35	-18.6786	360.568	-42.6287	-0.191971	0	-0.443135	0.0746789	-1.44159	0.170434	-21.8867	309.038	35.205	-0.167537	0	-0.832487	-0.120509	1.70157	0.19384
0.36	-18.1684	356.608	-42.4028	-0.1936	0	-0.443419	0.0771667	-1.51463	0.180098	-20.5507	303.528	34.4101	-0.170471	0	-0.831992	-0.116721	1.72394	0.195438
0.37	-17.4685	352.144	-42.0825	-0.195604	0	-0.443801	0.07912	-1.59497	0.190604	-18.8727	297.957	33.6572	-0.173959	0	-0.83145	-0.110608	1.74626	0.197257
0.38	-16.602	347.191	-41.6648	-0.197991	0	-0.444285	0.0804806	-1.68306	0.201976	-16.8718	292.372	32.9583	-0.177987	0	-0.83087	-0.102121	1.76965	0.199489
0.39	-15.5967	341.813	-41.151	-0.200771	0	-0.444881	0.0811862	-1.77925	0.214205	-14.5869	286.82	32.3232	-0.182511	0	-0.83026	-0.0913071	1.79535	0.202327
0.4	-14.4837	336.121	-40.5465	-0.203952	0	-0.445596	0.0811742	-1.8838	0.227243	-12.0752	281.348	31.7573	-0.187459	0	-0.829631	-0.0782985	1.82433	0.205922
0.41	-13.2952	330.27	-39.8605	-0.207534	0	-0.446435	0.0803884	-1.99695	0.241014	-9.40889	275.987	31.2597	-0.192733	0	-0.828993	-0.0633136	1.85715	0.21035
0.42	-12.0642	324.436	-39.1059	-0.211508	0	-0.447401	0.0787906	-2.11887	0.255398	-6.67045	270.743	30.8206	-0.198211	0	-0.828358	-0.0466592	1.89383	0.215587
0.43	-10.8227	318.8	-38.297	-0.215848	0	-0.448488	0.076371	-2.24963	0.270245	-3.94352	265.604	30.4208	-0.203769	0	-0.827734	-0.0287119	1.9338	0.221487
0.44	-9.59777	313.526	-37.4492	-0.220516	0	-0.449687	0.0731411	-2.38927	0.285387	-1.30187	260.55	30.0368	-0.209285	0	-0.827125	-0.00987253	1.97584	0.22778
0.45	-8.40801	308.757	-36.5784	-0.225458	0	-0.450987	0.0691065	-2.53771	0.300642	1.19827	255.584	29.6434	-0.214661	0	-0.826528	0.00946229	2.01825	0.234083
0.46	-7.26005	304.617	-35.7014	-0.230616	0	-0.452372	0.0642278	-2.69487	0.315841	3.52254	250.74	29.2157	-0.219824	0	-0.825937	0.0289314	2.05938	0.239955
0.47	-6.14831	301.221	-34.8352	-0.235926	0	-0.453822	0.0583921	-2.86078	0.330839	5.65945	246.088	28.7311	-0.224729	0	-0.825343	0.0482492	2.098	0.244945
0.48	-5.05794	298.677	-33.9962	-0.24132	0	-0.455319	0.0514017	-3.03533	0.345489	7.61753	241.722	28.1709	-0.229359	0	-0.824732	0.0672283	2.13331	0.248622
0.49	-3.97154	297.084	-33.1989	-0.246725	0	-0.456845	0.0430215	-3.21815	0.359625	9.42036	237.751	27.5224	-0.233709	0	-0.824091	0.0857731	2.16474	0.250593
0.5	-2.87554	296.511	-32.4532	-0.252067	0	-0.458378	0.0330557	-3.40854	0.373064	11.0994	234.282	26.7788	-0.237797	0	-0.823408	0.103833	2.19167	0.250511
0.51	-1.76563	296.98	-31.7629	-0.257266	0	-0.459898	0.021435	-3.60539	0.385608	12.6861	231.411	25.9392	-0.241643	0	-0.822673	0.121338	2.21336	0.248099
0.52	-0.649127	298.454	-31.1258	-0.262247	0	-0.461388	0.00828062	-3.80725	0.397058	14.2066	229.217	25.0082	-0.245277	0	-0.82188	0.138143	2.22887	0.243176
0.53	0.456167	300.848	-30.5354	-0.266945	0	-0.462827	-0.00608382	-4.01235	0.407246	15.6794	227.755	23.9949	-0.248727	0	-0.821026	0.154011	2.23712	0.23569
0.54	1.52359	304.039	-29.9832	-0.271304	0	-0.464204	-0.0211399	-4.21855	0.416018	17.1169	227.05	22.9121	-0.252023	0	-0.820112	0.168653	2.23714	0.225754
0.55	2.52169	307.891	-29.4582	-0.275289	0	-0.465504	-0.0362278	-4.42331	0.423211	18.5262	227.108	21.7754	-0.25519	0	-0.819144	0.181759	2.22813	0.213636
0.56	3.4201	312.265	-28.946	-0.278874	0	-0.466719	-0.0506432	-4.62388	0.428618	19.9105	227.91	20.6029	-0.258249	0	-0.818133	0.193025	2.2095	0.199737
0.57	4.19533	317.024	-28.4313	-0.282054	0	-0.467845	-0.0637542	-4.81765	0.432056	21.2693	229.421	19.4146	-0.261214	0	-0.817095	0.202186	2.18089	0.184555
0.58	4.83364	322.05	-27.9034	-0.284835	0	-0.46888	-0.0750818	-5.00246	0.433429	22.5996	231.596	18.2322	-0.264091	0	-0.816046	0.209062	2.14242	0.16866
0.59	5.3314	327.256	-27.3581	-0.287232	0	-0.469824	-0.0843344	-5.17668	0.432763	23.8992	234.38	17.0792	-0.26688	0	-0.815004	0.213603	2.09481	0.152648
0.6	5.69431	332.597	-26.7955	-0.289267	0	-0.470678	-0.0914141	-5.33937	0.430163	25.1706	237.722	15.9804	-0.269574	0	-0.813991	0.215929	2.03933	0.137089
0.61	5.93576	338.048	-26.2149	-0.290962	0	-0.471446	-0.0964019	-5.49019	0.425752	26.422	241.573	14.9604	-0.272158	0	-0.813026	0.216313	1.97772	0.122479
0.62	6.0752	343.575	-25.6133	-0.29234	0	-0.472131	-0.0995403	-5.62937	0.419665	27.6655	245.899	14.0434	-0.274612	0	-0.812128	0.215125	1.9121	0.109201
0.63	6.13363	349.114	-24.988	-0.293425	0	-0.472736	-0.101157	-5.75765	0.412107	28.9135	250.692	13.253	-0.276906	0	-0.811312	0.21277	1.84481	0.097527
0.64	6.12975	354.566	-24.3423	-0.294246	0	-0.473267	-0.101589	-5.87626	0.403427	30.1732	255.958	12.612	-0.279011	0	-0.810593	0.209618	1.77818	0.0876174
